<?xml version="1.0" standalone="no"?>
<!DOCTYPE svg PUBLIC "-//W3C//DTD SVG 20010904//EN"
 "http://www.w3.org/TR/2001/REC-SVG-20010904/DTD/svg10.dtd">
<svg version="1.0" xmlns="http://www.w3.org/2000/svg"
 width="500.000000pt" height="500.000000pt" viewBox="0 0 500.000000 500.000000"
 preserveAspectRatio="xMidYMid meet">
<metadata>
Created by potrace 1.11, written by Peter Selinger 2001-2013
</metadata>
<g transform="translate(0.000000,500.000000) scale(0.100000,-0.100000)"
fill="#000000" stroke="none">
<path d="M0 2500 l0 -2500 2500 0 2500 0 0 2500 0 2500 -2500 0 -2500 0 0
-2500z m2820 2055 c436 -46 720 -161 921 -372 153 -160 233 -352 255 -610 l7
-83 -342 0 -341 0 -4 23 c-2 12 -9 47 -15 78 -30 148 -128 270 -273 339 -109
52 -210 77 -374 92 -244 21 -475 -13 -650 -97 -203 -98 -292 -235 -282 -439
12 -259 127 -320 1018 -540 595 -147 840 -238 1039 -386 214 -159 312 -347
343 -659 21 -224 -13 -424 -106 -616 -91 -185 -213 -326 -388 -446 -300 -205
-688 -302 -1149 -285 -838 29 -1315 319 -1484 901 -28 97 -55 248 -55 308 l0
37 349 0 348 0 6 -87 c21 -318 234 -518 627 -589 122 -22 450 -25 560 -5 329
59 534 219 596 464 20 77 14 229 -12 302 -23 66 -101 143 -191 188 -130 66
-269 108 -993 302 -614 165 -811 252 -985 436 -84 91 -151 212 -179 329 -42
173 -45 409 -7 565 110 453 524 770 1110 850 132 18 485 18 651 0z"/>
</g>
</svg>
